/* XPM */
static const char * alpha_on_xpm[] = {
"16 16 7 1",
" 	c None",
"!	c #000000",
"#	c #FF0000",
"$	c #800000",
"%	c #808000",
"&	c #FFFFFF",
"'	c #FFFF00",
"                ",
"                ",
"    #$$$$$$     ",
"   !$!!$!!!!#   ",
" #%%&$%''!'%'$  ",
"#%##!#$'%#%%##! ",
" !%%!$&%%'!!%%$ ",
" #''%#%!$##''%  ",
"  %''##%&&%''#  ",
"   %'%#%&&%'#   ",
"   #'%#%&$'%    ",
"    $'#%&%%     ",
"     %%%#%#     ",
"     #!%$%      ",
"      #!$       ",
"       !#       "};
