/* XPM */
static const char * document_properties_xpm[] = {
"16 16 41 1",
" 	c None",
".	c #999999",
"+	c #818181",
"@	c #FFFFFF",
"#	c #ECECEC",
"$	c #EAEAEA",
"%	c #EBEBEB",
"&	c #EDEDED",
"*	c #F0F0F0",
"=	c #C4C4C4",
"-	c #C5C5C5",
";	c #C6C6C6",
">	c #C7C7C7",
",	c #696969",
"'	c #D2D2D2",
")	c #EEEEEE",
"!	c #B0B0B0",
"~	c #585858",
"{	c #696966",
"]	c #6A6A6A",
"^	c #D2D2CC",
"/	c #D6D6D6",
"(	c #595959",
"_	c #626262",
":	c #6C6C6C",
"<	c #DCDCDC",
"[	c #EFEFEF",
"}	c #D4D4D4",
"|	c #777777",
"1	c #858585",
"2	c #909090",
"3	c #9D9D9D",
"4	c #C8C8C8",
"5	c #B5B5B5",
"6	c #929292",
"7	c #9E9E9E",
"8	c #ABABAB",
"9	c #E0E0E0",
"0	c #ADADAD",
"a	c #BABABA",
"b	c #959595",
" .++++++++++++  ",
" +@@@@@@@@@@@@+ ",
" +@#$$%%%##&*@+ ",
" +@$=--;;;;>*@+ ",
" +@$%%,,,'&)*@+ ",
" +@%-;!~~~;>*@+ ",
" +@%,'#',{#)*@+ ",
" +@%~~!~]]^)*@+ ",
" +@#,,,]]]]/*@+ ",
" +@#!~~~~(_:<@+ ",
" +@#&))[}|123@+ ",
" +@&;>>445678@+ ",
" +@&&)[[**90a@+ ",
" +@@@@@@@@@@@@+ ",
" b++++++++++++b ",
"                "};
