/* XPM */
static const char * document_open_xpm[] = {
"16 16 137 2",
"  	c None",
". 	c #565854",
"+ 	c #575955",
"@ 	c #595B57",
"# 	c #5A5C58",
"$ 	c #5F615D",
"% 	c #7A7A7A",
"& 	c #797979",
"* 	c #F7F7F7",
"= 	c #F9F9F9",
"- 	c #FAFAFA",
"; 	c #FBFBFB",
"> 	c #FCFCFC",
", 	c #A2A3A2",
"' 	c #5B5C58",
") 	c #787878",
"! 	c #C9C9C9",
"~ 	c #C7C7C7",
"{ 	c #C4C4C4",
"] 	c #555753",
"^ 	c #DADADA",
"/ 	c #D3D3D3",
"( 	c #D2D2D2",
"_ 	c #CFCFCF",
": 	c #CDCDCD",
"< 	c #FEFEFE",
"[ 	c #939392",
"} 	c #5B5E5A",
"| 	c #737373",
"1 	c #C5C5C5",
"2 	c #B0B0B0",
"3 	c #ACACAC",
"4 	c #DCDCDC",
"5 	c #9C9D9C",
"6 	c #D5D5D4",
"7 	c #FDFDFD",
"8 	c #969796",
"9 	c #5B5D59",
"0 	c #6E6E6E",
"a 	c #C1C1C0",
"b 	c #AAAAAA",
"c 	c #E2E2E2",
"d 	c #DFDFDF",
"e 	c #DEDEDE",
"f 	c #DDDDDD",
"g 	c #E0E0E0",
"h 	c #E9E9E9",
"i 	c #E5E5E5",
"j 	c #D0D0D0",
"k 	c #5D5F5B",
"l 	c #6A6A6A",
"m 	c #BDBDBD",
"n 	c #A9A9A9",
"o 	c #A5A5A5",
"p 	c #E6E6E6",
"q 	c #9FA09E",
"r 	c #9C9D9B",
"s 	c #E3E3E3",
"t 	c #D0D1D0",
"u 	c #656565",
"v 	c #B7B7B7",
"w 	c #A6A6A6",
"x 	c #A1A1A1",
"y 	c #EBEBEB",
"z 	c #EAEAEA",
"A 	c #E8E8E8",
"B 	c #E7E7E7",
"C 	c #D9D9D9",
"D 	c #5B5C59",
"E 	c #5F5F5F",
"F 	c #B3B3B3",
"G 	c #406CA5",
"H 	c #3868A5",
"I 	c #3768A5",
"J 	c #3666A5",
"K 	c #3566A5",
"L 	c #3566A4",
"M 	c #3465A4",
"N 	c #3767A6",
"O 	c #5B5B5B",
"P 	c #AEAEAE",
"Q 	c #C0D5EA",
"R 	c #C1D5EA",
"S 	c #C1D6EA",
"T 	c #BBD2E8",
"U 	c #3465A5",
"V 	c #565656",
"W 	c #C3D6EA",
"X 	c #92B5DB",
"Y 	c #95B8DC",
"Z 	c #B9D0E7",
"` 	c #3466A4",
" .	c #515151",
"..	c #A5A5A4",
"+.	c #3666A4",
"@.	c #C5D7EB",
"#.	c #98B9DD",
"$.	c #95B7DC",
"%.	c #B8CEE7",
"&.	c #4C4C4C",
"*.	c #3767A5",
"=.	c #BFD2E9",
"-.	c #9BBADD",
";.	c #9ABADD",
">.	c #96B7DC",
",.	c #8FB2DA",
"'.	c #8BB0D8",
").	c #B1C9E4",
"!.	c #484848",
"~.	c #9B9B9B",
"{.	c #A5C1E1",
"].	c #8EB2D9",
"^.	c #8AAFD8",
"/.	c #85ACD7",
"(.	c #83AAD6",
"_.	c #81A9D5",
":.	c #7EA7D4",
"<.	c #79A3D3",
"[.	c #77A2D2",
"}.	c #7BA5D3",
"|.	c #95B6DB",
"1.	c #3567A6",
"2.	c #494949",
"3.	c #999999",
"4.	c #3968A5",
"5.	c #94B5DB",
"6.	c #82AAD5",
"7.	c #7DA6D4",
"8.	c #7FA8D4",
"9.	c #85ABD5",
"0.	c #7E8896",
"a.	c #5588BF",
"b.	c #5689C0",
"c.	c #4B7EB7",
"d.	c #3667A6",
"e.	c #454A51",
"f.	c #3565A4",
"        . + . + + @ # $         ",
"% & & & . * = - ; ; > , '       ",
") ! ~ { ] ^ / / ( _ : < [ }     ",
"| 1 2 3 ] 4 5 5 5 5 6 < 7 8 9   ",
"0 a 3 b . c d e e f g h i j k   ",
"l m n o . p q r r r f s s t 9   ",
"u v w x + y z z h h A A B C D   ",
"E F G H H I J J K L L L M M M N ",
"O P K Q Q Q Q Q Q R S S S S T U ",
"V n L W X X X X X X X X X Y Z ` ",
" ...+.@.#.#.#.#.#.#.#.#.#.$.%.K ",
"&.x *.=.-.;.;.;.;.;.;.>.,.'.).K ",
"!.~.H {.].^./.(._.:.<.[.[.}.|.1.",
"2.3.4.5.6.7.7.7.7.7.7.7.7.8.9.J ",
"!.0.4.a.b.b.b.b.b.b.b.b.b.b.c.d.",
"e.M M M M M M M M M M M M M f.  "};
