/* XPM */
static const char * document_print_xpm[] = {
"16 16 67 1",
" 	c None",
".	c #AAABA9",
"+	c #F9F9F9",
"@	c #888A85",
"#	c #F8F8F8",
"$	c #C4C4C4",
"%	c #F1F1F1",
"&	c #F3F3F3",
"*	c #F7F7F7",
"=	c #C6C6C6",
"-	c #C7C7C7",
";	c #E0E0E0",
">	c #E2E2E2",
",	c #E3E3E3",
"'	c #E5E5E5",
")	c #E6E6E6",
"!	c #E7E7E7",
"~	c #F6F6F6",
"{	c #F5F5F5",
"]	c #F5F5F6",
"^	c #7D7E7C",
"/	c #858684",
"(	c #ABABAB",
"_	c #A9A9A9",
":	c #AAAAAA",
"<	c #FCFCFC",
"[	c #F4F4F4",
"}	c #E8E8E8",
"|	c #FDFDFD",
"1	c #D4D4D4",
"2	c #EDEDED",
"3	c #AEAEAE",
"4	c #DFDFDF",
"5	c #E1E1E1",
"6	c #DCDCDC",
"7	c #9F9F9F",
"8	c #CDCCCB",
"9	c #F0F0F0",
"0	c #CCCBCB",
"a	c #DDDDDD",
"b	c #DEDEDE",
"c	c #D9D9D9",
"d	c #8C8B8A",
"e	c #C5C5C5",
"f	c #F2F2F2",
"g	c #BEBEBE",
"h	c #868584",
"i	c #7A7978",
"j	c #767574",
"k	c #787675",
"l	c #767472",
"m	c #72716F",
"n	c #747372",
"o	c #B2B2B2",
"p	c #BBBBBB",
"q	c #B9B9B9",
"r	c #B8B8B8",
"s	c #B8B8B7",
"t	c #B6B6B6",
"u	c #B3B3B3",
"v	c #B5B5B5",
"w	c #B7B7B7",
"x	c #ECECEC",
"y	c #D7D7D7",
"z	c #D8D8D8",
"A	c #D5D5D5",
"B	c #D6D6D6",
"                ",
"   ...........  ",
"   .++++@+++#.  ",
"   .+$$@@@$$#.  ",
"   .+%@@@@@&*.  ",
"   .*$$=@=--#.  ",
"   .*;>,@')!*.  ",
"   .~{{{{]]~*.  ",
" ^^/(_(((((_:/^^",
" ^<+[[[[[[[[[)}^",
" ^|123&4,5>;678^",
" ^90aabbb6aacde^",
" ^fghiijklmnkoe^",
" ^fpqqrrstuvwr-^",
" ^xyzzyyyyyAyB1^",
" ^^^^^^^^^^^^^^^"};
