/* XPM */
static const char * document_import_xpm[] = {
"16 16 170 2",
"  	c None",
". 	c #FB6801",
"+ 	c #FF3F00",
"@ 	c #FF6200",
"# 	c #EDDE11",
"$ 	c #58FFA6",
"% 	c #07C2F8",
"& 	c #0070FF",
"* 	c #0064FF",
"= 	c #0195FF",
"- 	c #0AD3F4",
"; 	c #2CFFD1",
"> 	c #5CFEA1",
", 	c #7A7A7A",
"' 	c #797979",
") 	c #FAA302",
"! 	c #F1B50D",
"~ 	c #BFE240",
"{ 	c #61F29D",
"] 	c #10BFEE",
"^ 	c #0066FF",
"/ 	c #0043FF",
"( 	c #0170FF",
"_ 	c #0EC8F0",
": 	c #59FCA5",
"< 	c #C6FB38",
"[ 	c #F5CE09",
"} 	c #787878",
"| 	c #C9C9C9",
"1 	c #C7C7C7",
"2 	c #DFE11A",
"3 	c #56FAA8",
"4 	c #08A6F7",
"5 	c #004EE6",
"6 	c #0032C9",
"7 	c #0041FF",
"8 	c #0297FD",
"9 	c #27F0D6",
"0 	c #91FF6C",
"a 	c #E1FF1B",
"b 	c #EDEC10",
"c 	c #E5E019",
"d 	c #737373",
"e 	c #C5C5C5",
"f 	c #B0B0B0",
"g 	c #DDE31D",
"h 	c #0FB6F0",
"i 	c #047CF5",
"j 	c #0374F4",
"k 	c #049DFB",
"l 	c #0FE8EF",
"m 	c #43FFBB",
"n 	c #7EFF81",
"o 	c #8CFF72",
"p 	c #65FA99",
"q 	c #2CE1D3",
"r 	c #6E6E6E",
"s 	c #C1C1C0",
"t 	c #ACACAC",
"u 	c #F9A502",
"v 	c #F5A10A",
"w 	c #E0A31C",
"x 	c #CCB833",
"y 	c #B3DD4C",
"z 	c #83FC7B",
"A 	c #2DFFD0",
"B 	c #0DDEF1",
"C 	c #059FF9",
"D 	c #0279F8",
"E 	c #0062FD",
"F 	c #004DFF",
"G 	c #6A6A6A",
"H 	c #BDBDBD",
"I 	c #A9A9A9",
"J 	c #FA6201",
"K 	c #E00600",
"L 	c #C00000",
"M 	c #C40100",
"N 	c #ED1C00",
"O 	c #FAA205",
"P 	c #85FF79",
"Q 	c #08C2F6",
"R 	c #004CFC",
"S 	c #0030BE",
"T 	c #0051EC",
"U 	c #0AA6F5",
"V 	c #656565",
"W 	c #B7B7B7",
"X 	c #A6A6A6",
"Y 	c #FB7E01",
"Z 	c #F32E00",
"` 	c #DE1A00",
" .	c #DE1900",
"..	c #F42F00",
"+.	c #FF8400",
"@.	c #E6DE18",
"#.	c #91F96D",
"$.	c #60EA9E",
"%.	c #5AE5A4",
"&.	c #73F18B",
"*.	c #B7F047",
"=.	c #5F5F5F",
"-.	c #B3B3B3",
";.	c #406CA5",
">.	c #3868A5",
",.	c #3768A5",
"'.	c #3666A5",
").	c #3566A5",
"!.	c #3566A4",
"~.	c #3465A4",
"{.	c #3767A6",
"].	c #5B5B5B",
"^.	c #AEAEAE",
"/.	c #C0D5EA",
"(.	c #C1D5EA",
"_.	c #C1D6EA",
":.	c #BBD2E8",
"<.	c #3465A5",
"[.	c #565656",
"}.	c #C3D6EA",
"|.	c #92B5DB",
"1.	c #95B8DC",
"2.	c #B9D0E7",
"3.	c #3466A4",
"4.	c #515151",
"5.	c #A5A5A4",
"6.	c #3666A4",
"7.	c #C5D7EB",
"8.	c #98B9DD",
"9.	c #95B7DC",
"0.	c #B8CEE7",
"a.	c #4C4C4C",
"b.	c #A1A1A1",
"c.	c #3767A5",
"d.	c #BFD2E9",
"e.	c #9BBADD",
"f.	c #9ABADD",
"g.	c #96B7DC",
"h.	c #8FB2DA",
"i.	c #8BB0D8",
"j.	c #B1C9E4",
"k.	c #484848",
"l.	c #9B9B9B",
"m.	c #A5C1E1",
"n.	c #8EB2D9",
"o.	c #8AAFD8",
"p.	c #85ACD7",
"q.	c #83AAD6",
"r.	c #81A9D5",
"s.	c #7EA7D4",
"t.	c #79A3D3",
"u.	c #77A2D2",
"v.	c #7BA5D3",
"w.	c #95B6DB",
"x.	c #3567A6",
"y.	c #494949",
"z.	c #999999",
"A.	c #3968A5",
"B.	c #94B5DB",
"C.	c #82AAD5",
"D.	c #7DA6D4",
"E.	c #7FA8D4",
"F.	c #85ABD5",
"G.	c #7E8896",
"H.	c #5588BF",
"I.	c #5689C0",
"J.	c #4B7EB7",
"K.	c #3667A6",
"L.	c #454A51",
"M.	c #3565A4",
"      . + @ # $ % & * = - ; >   ",
", ' ' ) ! ~ { ] ^ / ( _ : < [   ",
"} | 1 2 3 4 5 6 7 8 9 0 a b c   ",
"d e f g 3 h i j k l m n o p q   ",
"r s t u v w x y z A B C D E F   ",
"G H I J K L M N O P Q R S T U   ",
"V W X Y Z `  ...+.@.#.$.%.&.*.  ",
"=.-.;.>.>.,.'.'.).!.!.!.~.~.~.{.",
"].^.)././././././.(._._._._.:.<.",
"[.I !.}.|.|.|.|.|.|.|.|.|.1.2.3.",
"4.5.6.7.8.8.8.8.8.8.8.8.8.9.0.).",
"a.b.c.d.e.f.f.f.f.f.f.g.h.i.j.).",
"k.l.>.m.n.o.p.q.r.s.t.u.u.v.w.x.",
"y.z.A.B.C.D.D.D.D.D.D.D.D.E.F.'.",
"k.G.A.H.I.I.I.I.I.I.I.I.I.I.J.K.",
"L.~.~.~.~.~.~.~.~.~.~.~.~.~.M.  "};
