/* XPM */
static const char * document_save_xpm[] = {
"16 16 107 2",
"  	c None",
". 	c #38678B",
"+ 	c #3D698A",
"@ 	c #4A7180",
"# 	c #58787A",
"$ 	c #B1CEE6",
"% 	c #D0DFEF",
"& 	c #C5DBEC",
"* 	c #9BC2DF",
"= 	c #688BA0",
"- 	c #436E88",
"; 	c #6B7F88",
"> 	c #667173",
", 	c #627075",
"' 	c #4A6D85",
") 	c #41749A",
"! 	c #44789F",
"~ 	c #9EBFD9",
"{ 	c #C1D9EB",
"] 	c #5186AF",
"^ 	c #4E6A7D",
"/ 	c #6E706B",
"( 	c #6B716E",
"_ 	c #E2E6DD",
": 	c #FFFFFF",
"< 	c #DDE1D6",
"[ 	c #C9D6DD",
"} 	c #6E99B6",
"| 	c #ABCBE2",
"1 	c #92B7D3",
"2 	c #547D9B",
"3 	c #D5DFE5",
"4 	c #F4F4F4",
"5 	c #72756B",
"6 	c #FDFDFD",
"7 	c #EEEEEE",
"8 	c #EDEDED",
"9 	c #DFE2DE",
"0 	c #7798B0",
"a 	c #79A7CA",
"b 	c #8FB3CE",
"c 	c #3D6B8E",
"d 	c #ACBCC3",
"e 	c #EDEDEE",
"f 	c #EDEEEE",
"g 	c #EDEEED",
"h 	c #F3F4F3",
"i 	c #FCFBFC",
"j 	c #EBECEC",
"k 	c #5892BD",
"l 	c #ECECEC",
"m 	c #F3F3F3",
"n 	c #FAFAFA",
"o 	c #E9E9EA",
"p 	c #CACFC4",
"q 	c #98BFDC",
"r 	c #719FBF",
"s 	c #739FC0",
"t 	c #96BBD8",
"u 	c #95A9AF",
"v 	c #EAE9EA",
"w 	c #F2F2F2",
"x 	c #F9F9F9",
"y 	c #E4E4E4",
"z 	c #C5CBBF",
"A 	c #ABC8DF",
"B 	c #92A6AC",
"C 	c #F1F1F1",
"D 	c #ACCBE3",
"E 	c #3B6B8F",
"F 	c #F7F7F7",
"G 	c #E3E3E3",
"H 	c #CED4C8",
"I 	c #3F6C8E",
"J 	c #9AAEB4",
"K 	c #FCFCFC",
"L 	c #F0F0F0",
"M 	c #FEFEFE",
"N 	c #EBEBEB",
"O 	c #CECECE",
"P 	c #C9C9C9",
"Q 	c #C5C5C5",
"R 	c #D6D6D6",
"S 	c #9F9F9F",
"T 	c #AFAFAF",
"U 	c #BCBCBC",
"V 	c #C4C4C4",
"W 	c #C8C8C8",
"X 	c #D0D0D0",
"Y 	c #A9A9A9",
"Z 	c #D2D2D2",
"` 	c #B9B9B9",
" .	c #CACACA",
"..	c #CDCDCD",
"+.	c #C3C3C3",
"@.	c #AAAAA9",
"#.	c #B4B4B4",
"$.	c #C2C2C2",
"%.	c #CBCBCB",
"&.	c #A8A7A8",
"*.	c #D1D1D1",
"=.	c #A8A7A7",
"-.	c #B7B6B6",
";.	c #DDDDDD",
">.	c #DCDCDC",
",.	c #D5D5D5",
"'.	c #CFCFCF",
"      . . . + @ #               ",
"      $ % & * = -               ",
"; > , ' ) ! ~ { ] ^ / / / / / / ",
"( _ : < [ } . | 1 2 3 : : : 4 / ",
"5 6 7 8 9 0 . a b c d e f g h / ",
"/ i j . . . . a k . . . . l m / ",
"/ n o p . q r r r s t . u v w / ",
"/ x n y z . q s s A . B y 4 C / ",
"/ x 7 n y z . D q E B y n 7 C / ",
"/ F G 7 n n H I . J n K 7 G L / ",
"/ M : : : : : : : 4 4 N N G L / ",
"/ O P P P P Q P P Q Q Q Q Q R / ",
"/ O Q S T U V W X Y Z Y Z `  ./ ",
"/ ..+.@.#.$.V W %.&.*.=.*.-. ./ ",
"/ ;.>.>.>.,.,.'.'.'.'.'.'.'. ./ ",
"/ / / / / / / / / / / / / / / / "};
