/* XPM */
static const char * edit_redo_xpm[] = {
"16 16 47 1",
" 	c None",
".	c #4E9A06",
"+	c #AEF36C",
"@	c #8F9B0C",
"#	c #A9DE49",
"$	c #AEF16A",
"%	c #AEF26B",
"&	c #B3F573",
"*	c #A6EF61",
"=	c #73D216",
"-	c #ACD945",
";	c #AFEF67",
">	c #A1E950",
",	c #A0DB24",
"'	c #A9D846",
")	c #B1EF65",
"!	c #A4DE24",
"~	c #97DD2A",
"{	c #AFD71A",
"]	c #75D318",
"^	c #9DC230",
"/	c #B1ED60",
"(	c #A5DF26",
"_	c #C8D009",
":	c #77D014",
"<	c #8AE234",
"[	c #559F0C",
"}	c #B1E963",
"|	c #BAE031",
"1	c #CBD417",
"2	c #9BD622",
"3	c #A1DA23",
"4	c #D9DE23",
"5	c #529D0A",
"6	c #B2EC64",
"7	c #CDD624",
"8	c #93A10B",
"9	c #CCD41E",
"0	c #BEE246",
"a	c #99A605",
"b	c #B3D937",
"c	c #B8DD3A",
"d	c #AFC723",
"e	c #919D05",
"f	c #5AA80F",
"g	c #C0D62C",
"h	c #9A9902",
"         .      ",
"         ..     ",
"         .+.    ",
"      ....++.   ",
"    .@#$%&*=+.  ",
"   .-;>,,,,==+. ",
"  .')!~,,{===]+.",
" .^/({{_:====<. ",
" [}|1233334=<.  ",
" 5678.....9<.   ",
" .0a.    .<.    ",
" .b.     ..     ",
" .c.     .      ",
" .de            ",
"  fgh           ",
"                "};
