/* XPM */
static const char * edit_undo_xpm[] = {
"16 16 61 1",
" 	c None",
".	c #C4A000",
"+	c #FBF3AD",
"@	c #FBE425",
"#	c #BEA113",
"$	c #BB9F15",
"%	c #BBA11B",
"&	c #F6E131",
"*	c #FAE320",
"=	c #FAEC73",
"-	c #FAEB6F",
";	c #F7E86E",
">	c #F7E86C",
",	c #BCA114",
"'	c #C1A314",
")	c #F6E02F",
"!	c #F7E232",
"~	c #F1DB29",
"{	c #F5E02F",
"]	c #E3CD16",
"^	c #ECD936",
"/	c #F6E769",
"(	c #E3CE41",
"_	c #C1A313",
":	c #F8E232",
"<	c #E8D21D",
"[	c #E1CD40",
"}	c #BDA116",
"|	c #FBED79",
"1	c #F4DF2C",
"2	c #D6C004",
"3	c #DFC80B",
"4	c #F3E56A",
"5	c #C5AB1B",
"6	c #BCA015",
"7	c #FBED76",
"8	c #DAC304",
"9	c #F9EA69",
"0	c #F7DD05",
"a	c #DFC80A",
"b	c #D8C207",
"c	c #EBDC6F",
"d	c #BFA31B",
"e	c #C4A901",
"f	c #EEE16E",
"g	c #DFC90F",
"h	c #F2E469",
"i	c #C0A41A",
"j	c #F5E66D",
"k	c #EFE276",
"l	c #C1A319",
"m	c #C8AC02",
"n	c #F2E788",
"o	c #C2A211",
"p	c #CBAA0E",
"q	c #E9DA5D",
"r	c #C0A623",
"s	c #DBC443",
"t	c #D8C543",
"u	c #EADB66",
"v	c #C2A611",
"      .         ",
"     ..         ",
"    .+.         ",
"   .+@..#$%     ",
"  .+&*=-;>,'    ",
" .+)!~{~]^/(_   ",
".+):!!{~<<<^[}  ",
" .|:1222<<<3456 ",
"  .78799990abcd ",
"   .77....efghi ",
"    .7.    .jkl ",
"     ..     mno ",
"      .     pqr ",
"            str ",
"            uv  ",
"                "};
