/* XPM */
static const char * edit_select_all_xpm[] = {
"16 16 37 1",
" 	c None",
".	c #8B8D89",
"+	c #888A85",
"@	c #8C8E89",
"#	c #FDFDFD",
"$	c #FEFEFE",
"%	c #FCFCFC",
"&	c #FBFBFB",
"*	c #FAFAFA",
"=	c #F9F9F9",
"-	c #8B8D88",
";	c #A8BED6",
">	c #A9BFD7",
",	c #AAC0D8",
"'	c #ABC1D9",
")	c #F8F8F8",
"!	c #8197AF",
"~	c #ACC2DA",
"{	c #ADC3DB",
"]	c #AEC4DC",
"^	c #EBEBEB",
"/	c #AFC5DD",
"(	c #ECECEC",
"_	c #B0C6DE",
":	c #EEEEEE",
"<	c #B1C7DF",
"[	c #F0F0F0",
"}	c #B2C8E0",
"|	c #F2F2F2",
"1	c #F7F7F7",
"2	c #000000",
"3	c #B3C9E1",
"4	c #F4F4F4",
"5	c #F5F5F5",
"6	c #F6F6F6",
"7	c #8298B0",
"8	c #8D8F8A",
" .++++++++++++@ ",
" +#$$##%%&&**=- ",
" +#;>>,,''''')- ",
" +$>!!!!~!!!~)- ",
" +#,!!!!{{{{{)- ",
" +#,!!!!{]]]^)- ",
" +%'!!!!]!!/()- ",
" +%~~{]//___:)- ",
" +%~{]//__<<[)- ",
" +&~!!!!!!!}|1- ",
" +&{]/__2}2341- ",
" +*{]/_<}25661- ",
" +={7777}21)11- ",
" +={]/_<}21=)1- ",
" +))))))2)2)))- ",
" @++++++++++++8 "};
