/* XPM */
static const char * edit_delete_xpm[] = {
"16 16 136 2",
"  	c None",
". 	c #2E3436",
"+ 	c #64696A",
"@ 	c #909894",
"# 	c #E9EAE3",
"$ 	c #EEEFEC",
"% 	c #EFF0EE",
"& 	c #D2D5D3",
"* 	c #BFC1C1",
"= 	c #979A9B",
"- 	c #424749",
"; 	c #D9DBD6",
"> 	c #C7CAC4",
", 	c #6E7672",
"' 	c #424745",
") 	c #242727",
"! 	c #313432",
"~ 	c #7A837E",
"{ 	c #B3B8B3",
"] 	c #CBCECB",
"^ 	c #CBCFCB",
"/ 	c #D6D9D3",
"( 	c #D2D5CD",
"_ 	c #DADCD6",
": 	c #AEB3AD",
"< 	c #5C6362",
"[ 	c #353939",
"} 	c #373A38",
"| 	c #585E5B",
"1 	c #8D948F",
"2 	c #AAAFA7",
"3 	c #D2D6D2",
"4 	c #B5BAB5",
"5 	c #E5E5E1",
"6 	c #F0F0ED",
"7 	c #ECEDE9",
"8 	c #E3E5E0",
"9 	c #DDDED9",
"0 	c #CBCEC7",
"a 	c #B6BBB3",
"b 	c #A2A8A0",
"c 	c #B3B8B0",
"d 	c #BABFB7",
"e 	c #ABB0A8",
"f 	c #CBCECD",
"g 	c #E0E2E2",
"h 	c #E6E6DD",
"i 	c #F4F4EF",
"j 	c #F4F3F1",
"k 	c #F4F4F1",
"l 	c #F3F4F0",
"m 	c #F0F0EB",
"n 	c #E5E6E0",
"o 	c #D6D9D2",
"p 	c #919894",
"q 	c #8B8F8D",
"r 	c #898D8D",
"s 	c #9A9C9C",
"t 	c #C2C5C4",
"u 	c #BCC0BF",
"v 	c #D9DBD2",
"w 	c #DFE0D8",
"x 	c #D9DBD4",
"y 	c #CCD0CF",
"z 	c #848C89",
"A 	c #969C99",
"B 	c #86898A",
"C 	c #53585A",
"D 	c #5A5F60",
"E 	c #8B8F8F",
"F 	c #ADAFB0",
"G 	c #E4E5E5",
"H 	c #E3E5E5",
"I 	c #E3E5E4",
"J 	c #A1A4A4",
"K 	c #686D6E",
"L 	c #3C4041",
"M 	c #4C5052",
"N 	c #6B7171",
"O 	c #323838",
"P 	c #2E3434",
"Q 	c #2B3132",
"R 	c #2B3133",
"S 	c #292E30",
"T 	c #282D2F",
"U 	c #272C2E",
"V 	c #393D3C",
"W 	c #939594",
"X 	c #AFB5B3",
"Y 	c #B0B6B4",
"Z 	c #69706E",
"` 	c #979F9B",
" .	c #6A716D",
"..	c #393E3B",
"+.	c #5F6764",
"@.	c #333734",
"#.	c #616866",
"$.	c #989B99",
"%.	c #B7BBBB",
"&.	c #D5D8D6",
"*.	c #818A88",
"=.	c #D1D4D2",
"-.	c #7E8785",
";.	c #515756",
">.	c #899290",
",.	c #434844",
"'.	c #6E7774",
").	c #A0A3A1",
"!.	c #D6D9D7",
"~.	c #858D8A",
"{.	c #D8DBD8",
"].	c #A2A8A3",
"^.	c #555B59",
"/.	c #979E9C",
"(.	c #454B47",
"_.	c #6F7875",
":.	c #D4D7D5",
"<.	c #838C89",
"[.	c #D8DBD7",
"}.	c #9B9D9B",
"|.	c #AFB1B0",
"1.	c #CCCFCF",
"2.	c #B9BBBB",
"3.	c #DDDFDC",
"4.	c #A0A7A4",
"5.	c #878B88",
"6.	c #929595",
"7.	c #727373",
"8.	c #575C5E",
"9.	c #9B9C9B",
"0.	c #D5D8D7",
"a.	c #CFD2D0",
"b.	c #BFC0BF",
"c.	c #BEC1BF",
"d.	c #878787",
"e.	c #54595A",
"          . . . . . .           ",
"      . + @ # $ % & * = .       ",
"    - ; > , ' ) ! ~ { ] ^ .     ",
"  . / ( _ : < [ } | 1 2 3 4 .   ",
"  . 5 6 7 8 9 0 a b c d e f .   ",
"  . g h i j k l m n o p q r .   ",
"  . s t u v w x y z A B C . .   ",
"    . D E F G H I J K L M .     ",
"    . N O P Q R S T U V W .     ",
"    . X Y Z `  ...+.@.#.$..     ",
"    . %.&.*.=.-.;.>.,.'.)..     ",
"    . %.!.~.{.].^./.(._.)..     ",
"    . %.:.<.[.].^./.(.'.}..     ",
"    . |.1.2.3.].^.4.5.6.7..     ",
"      . 8.9.0.a.b.c.d.e..       ",
"          . . . . . .           "};
