/* XPM */
static const char * film_r_xpm[] = {
"16 16 13 1",
" 	c None",
".	c #B53C3C",
"+	c #B23B3B",
"@	c #AF3A3A",
"#	c #AE3939",
"$	c #A63737",
"%	c #A53737",
"&	c #BD3F3F",
"*	c #C04141",
"=	c #BA3E3E",
"-	c #C14444",
";	c #C24949",
">	c #C44F4F",
"                ",
"                ",
"  .+@#$$%$%%%   ",
"  . .+##$#$ %   ",
"  &&..++#+##$   ",
"  * &=..+.+ #   ",
"  -**&&.....+   ",
"  ; -**&&&& .   ",
"  >;;;**&*&&&   ",
"  ; -**&&&& .   ",
"  -**&&.....+   ",
"  * &=..+.+ #   ",
"  &&..++#+##$   ",
"  . .+##$#$ %   ",
"  .+@#$$%$%%%   ",
"                "};
