/* XPM */
static const char * film_b_xpm[] = {
"16 16 15 1",
" 	c None",
".	c #7474D1",
"+	c #7171D0",
"@	c #7070CF",
"#	c #6F6FCF",
"$	c #6A6ACD",
"%	c #6868CD",
"&	c #7373D0",
"*	c #7979D2",
"=	c #7C7CD3",
"-	c #7676D1",
";	c #7E7ED3",
">	c #8282D5",
",	c #8585D6",
"'	c #8181D4",
"                ",
"                ",
"  .+@#$$%$%%%   ",
"  . &+##$#$ %   ",
"  **..++#+##$   ",
"  = *-..+.+ #   ",
"  ;==**....&+   ",
"  > ;==**** .   ",
"  ,>>'==*=***   ",
"  > ;==**** .   ",
"  ;==**....&+   ",
"  = *-..+.+ #   ",
"  **..++#+##$   ",
"  . &+##$#$ %   ",
"  .+@#$$%$%%%   ",
"                "};
