/* XPM */
static const char * format_indent_more_xpm[] = {
"16 16 34 1",
" 	c None",
".	c #4E8FCC",
"+	c #498DC7",
"@	c #FFFFFF",
"#	c #4B90CB",
"$	c #FEFEFE",
"%	c #FABFBA",
"&	c #A22320",
"*	c #F9B7B3",
"=	c #921B18",
"-	c #F9B5B1",
";	c #FCD2D2",
">	c #F49A9A",
",	c #E67674",
"'	c #D55653",
")	c #BE3936",
"!	c #F8B3B0",
"~	c #F49A98",
"{	c #D45552",
"]	c #F8B2AE",
"^	c #F39D99",
"/	c #E67572",
"(	c #F8B0AC",
"_	c #F39B97",
":	c #E67772",
"<	c #D35653",
"[	c #F8AEAA",
"}	c #F39795",
"|	c #E57471",
"1	c #D35451",
"2	c #F8AEAC",
"3	c #F8B1AC",
"4	c #FBCAC7",
"5	c #4C8ECC",
" .++++++++++++. ",
" +@@@@@@@@@@@@# ",
" +@@@@@@@@@@@$# ",
" +@@@@@#####@$# ",
" +@@@@@%@@@@@$# ",
" +@@@@@&*@@@@@# ",
" +@@@@@&=-@@@@# ",
" +;>,')&==!@@@# ",
" +;~,{)&===]@$# ",
" +;^/{)&====($# ",
" +;_:<)&===[@$# ",
" +;}|1)&==2@@@# ",
" +@@@@@&=3@@@@# ",
" +@@@@@&3@@@@@# ",
" +@@@@@4$$@@@@# ",
" .############5 "};
