/* XPM */
static const char * go_first_xpm[] = {
"16 16 100 2",
"  	c None",
". 	c #3A7304",
"+ 	c #3B7504",
"@ 	c #3B7404",
"# 	c #588B28",
"$ 	c #3A7404",
"% 	c #81AA58",
"& 	c #C4DCAC",
"* 	c #457C12",
"= 	c #A6C787",
"- 	c #BEDAA5",
"; 	c #C6DEAF",
"> 	c #629135",
", 	c #BBD6A1",
"' 	c #B0D290",
") 	c #91C064",
"! 	c #C3DDAB",
"~ 	c #3B7604",
"{ 	c #3B7506",
"] 	c #86AE5F",
"^ 	c #BDD9A3",
"/ 	c #9DC775",
"( 	c #8CBD5D",
"_ 	c #8BBE5B",
": 	c #C2DDA8",
"< 	c #C0DDA5",
"[ 	c #BEDBA2",
"} 	c #BBD99E",
"| 	c #B8D79A",
"1 	c #B4D496",
"2 	c #487E17",
"3 	c #A0C380",
"4 	c #B1D292",
"5 	c #8BBC5D",
"6 	c #86BA55",
"7 	c #87BD54",
"8 	c #87BF52",
"9 	c #87C04F",
"0 	c #85C04C",
"a 	c #81BE46",
"b 	c #7CBA3F",
"c 	c #76B539",
"d 	c #B4D594",
"e 	c #AECE8F",
"f 	c #9CC673",
"g 	c #7DB448",
"h 	c #7DB549",
"i 	c #80B74B",
"j 	c #83BC4B",
"k 	c #81BF46",
"l 	c #79BC37",
"m 	c #71BA2A",
"n 	c #69B51E",
"o 	c #65B31B",
"p 	c #65B01D",
"q 	c #B0D58E",
"r 	c #A1C77E",
"s 	c #68A92B",
"t 	c #62A523",
"u 	c #5FA81A",
"v 	c #5DAB11",
"w 	c #5CB00C",
"x 	c #60B50D",
"y 	c #62B80E",
"z 	c #61B80E",
"A 	c #5FB50D",
"B 	c #5CAF0C",
"C 	c #A8D280",
"D 	c #41790E",
"E 	c #85B25A",
"F 	c #8FBF62",
"G 	c #59A213",
"H 	c #55A509",
"I 	c #5AAD0B",
"J 	c #64BB0F",
"K 	c #66BF10",
"L 	c #63BB0F",
"M 	c #5FB40D",
"N 	c #A9D480",
"O 	c #6A9C3B",
"P 	c #9CC772",
"Q 	c #70B42D",
"R 	c #62B90E",
"S 	c #B0DE83",
"T 	c #B2E184",
"U 	c #ADDA82",
"V 	c #AAD681",
"W 	c #50851D",
"X 	c #99C66E",
"Y 	c #8AC74E",
"Z 	c #64BB11",
"` 	c #B1E084",
" .	c #3F7B05",
"..	c #3F780A",
"+.	c #87B955",
"@.	c #9FD56C",
"#.	c #6AA136",
"$.	c #ACDB7E",
"%.	c #4E8619",
"&.	c #3C7604",
". .                 +           ",
". .             @ # .           ",
". .           $ % & .           ",
". .         * = - ; .           ",
". .     @ > , ' ) ! ~ . . . . $ ",
". .   { ] ^ / ( _ : < [ } | 1 . ",
". . 2 3 4 5 6 7 8 9 0 a b c d . ",
". . e f g h i j k l m n o p q . ",
". . r ( s t u v w x y z A B C . ",
". . D E F G H I A J K K L M N . ",
". .   $ O P Q w R S T T S U V . ",
". .     @ W X Y Z `  .. . . . $ ",
". .         ..+.@.` .           ",
". .           + #.$..           ",
". .             ~ %..           ",
". .                 &.          "};
