/* XPM */
static const char * go_last_xpm[] = {
"16 16 100 2",
"  	c None",
". 	c #3B7504",
"+ 	c #3A7304",
"@ 	c #568927",
"# 	c #3A7404",
"$ 	c #C0DBA7",
"% 	c #7EA955",
"& 	c #C3DCAB",
"* 	c #BCD8A0",
"= 	c #A4C684",
"- 	c #447B11",
"; 	c #3B7604",
"> 	c #C1DBA9",
", 	c #8EBE5F",
"' 	c #AFD28D",
") 	c #BAD6A0",
"! 	c #629135",
"~ 	c #3B7404",
"{ 	c #B2D393",
"] 	c #B4D496",
"^ 	c #B7D69A",
"/ 	c #BAD79E",
"( 	c #BDD9A1",
"_ 	c #C0DCA4",
": 	c #8AC058",
"< 	c #8EC25C",
"[ 	c #9FCB76",
"} 	c #BFDBA4",
"| 	c #86AF60",
"1 	c #3B7506",
"2 	c #B0D190",
"3 	c #6CAB30",
"4 	c #71AE37",
"5 	c #76B23D",
"6 	c #7DB845",
"7 	c #83BE4B",
"8 	c #87C150",
"9 	c #8BC353",
"0 	c #8CC356",
"a 	c #91C560",
"b 	c #B4D694",
"c 	c #A2C581",
"d 	c #497E17",
"e 	c #ACCF8A",
"f 	c #59A016",
"g 	c #589F14",
"h 	c #5EA718",
"i 	c #6AB226",
"j 	c #76BB35",
"k 	c #83C245",
"l 	c #88C64B",
"m 	c #88C54D",
"n 	c #87C34D",
"o 	c #84BF4C",
"p 	c #B0D092",
"q 	c #A3CA7E",
"r 	c #4E9A06",
"s 	c #509E07",
"t 	c #56A609",
"u 	c #5AAD0B",
"v 	c #5EB30D",
"w 	c #61B70E",
"x 	c #66BB16",
"y 	c #6CBC1F",
"z 	c #71BC2A",
"A 	c #73B930",
"B 	c #92C560",
"C 	c #A3C97F",
"D 	c #52A108",
"E 	c #58A90A",
"F 	c #5DB10C",
"G 	c #62B80E",
"H 	c #66BE10",
"I 	c #67C011",
"J 	c #6ABB1B",
"K 	c #99CE66",
"L 	c #89B85B",
"M 	c #42790E",
"N 	c #A6CF7F",
"O 	c #A9D480",
"P 	c #ACD881",
"Q 	c #AFDC83",
"R 	c #6AC412",
"S 	c #6CC813",
"T 	c #80CC35",
"U 	c #A6D777",
"V 	c #6EA33D",
"W 	c #3D7904",
"X 	c #AFDD83",
"Y 	c #6DC815",
"Z 	c #97DC55",
"` 	c #A3D673",
" .	c #52891E",
"..	c #A5DC6E",
"+.	c #8DC459",
"@.	c #3F790A",
"#.	c #AAD97D",
"$.	c #6CA436",
"%.	c #3C7604",
"&.	c #4D8519",
"          .                 + + ",
"          + @ #             + + ",
"          + $ % #           + + ",
"          + & * = -         + + ",
"# + + + + ; > , ' ) ! ~     + + ",
"+ { ] ^ / ( _ : < [ } | 1   + + ",
"+ 2 3 4 5 6 7 8 9 0 a b c d + + ",
"+ e f g h i j k l m n o [ p + + ",
"+ q r s t u v w x y z A B C + + ",
"+ q r D E F G H I H J K L M + + ",
"+ q q N O P Q R S T U V .   + + ",
"# + + + + W X Y Z `  .;     + + ",
"          + X ..+.@.        + + ",
"          + #.$.%.          + + ",
"          + &.%.            + + ",
"          ;                 + + "};
