/* XPM */
static const char * help_faq_xpm[] = {
"16 16 73 1",
" 	c None",
".	c #B6B8B4",
"+	c #93938F",
"@	c #888A85",
"#	c #8D908A",
"$	c #BDBEBB",
"%	c #FCFCFC",
"&	c #FFFFFF",
"*	c #BBBCBB",
"=	c #8D8F89",
"-	c #91928E",
";	c #93968F",
">	c #B4B5B1",
",	c #EEEEEB",
"'	c #A0BDDA",
")	c #A3BFDB",
"!	c #91B3D5",
"~	c #DBE2EB",
"{	c #FCFCFB",
"]	c #BCBDBA",
"^	c #B8B9B7",
"/	c #F1F1F1",
"(	c #F2F2F1",
"_	c #ADC6DE",
":	c #BFD1E2",
"<	c #FEFEFE",
"[	c #8F918C",
"}	c #8D8E8A",
"|	c #F2F2F0",
"1	c #EFEFED",
"2	c #A1BDDA",
"3	c #91B3D6",
"4	c #E1E7EC",
"5	c #92948F",
"6	c #F5F5F4",
"7	c #BDD0E5",
"8	c #ACC6DF",
"9	c #F4F5F4",
"0	c #8F908C",
"a	c #F1F1F0",
"b	c #AEC6DE",
"c	c #BFD1E3",
"d	c #F8F8F6",
"e	c #8AAFD5",
"f	c #FBFBFB",
"g	c #F8F8F7",
"h	c #8AAFD6",
"i	c #7AA5D3",
"j	c #8A8C88",
"k	c #FBFBFA",
"l	c #90938E",
"m	c #8E8F8B",
"n	c #FDFDFD",
"o	c #7AA5D2",
"p	c #8B8D88",
"q	c #949591",
"r	c #F6F6F5",
"s	c #969994",
"t	c #C0C1BE",
"u	c #FEFEFD",
"v	c #90928E",
"w	c #90938C",
"x	c #EEEEEC",
"y	c #8D8F8A",
"z	c #939590",
"A	c #979994",
"B	c #90908C",
"C	c #DFDFDE",
"D	c #90928D",
"E	c #EDEDEC",
"F	c #8F908B",
"G	c #DFE0DE",
"H	c #8E908B",
"                ",
"       .+@@@@#  ",
"      .$%&&&&%* ",
" =-@@@@;>,')!~{#",
" ]%&&&&%]^/(_:<[",
"}%|12)34{56789<[",
"0<||a|bc<0dedd&[",
"[<666789<[ffff&[",
"[&ggghgg&[<i<<&j",
"0&kkkkkk&[&&<<%l",
"mn<<<o<<&pqr&&s ",
" tu&&&<<%v wx&[ ",
" ym@zr&&A   BC[ ",
"     DE&[    F@ ",
"      0G[       ",
"       H@       "};
