/* XPM */
static const char * light_on_xpm[] = {
"16 16 14 1",
" 	c None",
"!	c #000000",
"%	c #603000",
"'	c #804000",
")	c #A05000",
"*	c #201000",
"+	c #402000",
"-	c #E07000",
"0	c #004000",
"1	c #404000",
"2	c #FF7F00",
"3	c #C06000",
"7	c #603000",
"8	c #203000",
"     '    '     ",
"    ''%33'''    ",
"    '2)*+3-%    ",
"    '100001+    ",
" ''+01322310+'' ",
"3'211222222112''",
" %)0322222-'0)% ",
" 3*0222222-)0*3 ",
" 3+0222222-)0+3 ",
" '3032222-3703' ",
"3'-183---3381-''",
" '%*08'))780*%' ",
"    '100001+    ",
"    '2)*+3-%    ",
"    ''%33'''    ",
"     '    '     "};
