/* XPM */
static const char * media_seek_backward_xpm[] = {
"16 16 69 1",
" 	c None",
".	c #414140",
"+	c #3D3F3B",
"@	c #494A47",
"#	c #3D3D3B",
"$	c #4A4B48",
"%	c #4E4F4C",
"&	c #747571",
"*	c #FCFCFC",
"=	c #4E504C",
"-	c #4C4C4A",
";	c #696C68",
">	c #F9F9F8",
",	c #4D4E4B",
"'	c #5B5E5A",
")	c #6E6F6C",
"!	c #EEEFEE",
"~	c #FCFDFC",
"{	c #FBFBFB",
"]	c #595A57",
"^	c #595A56",
"/	c #646662",
"(	c #EBEBEA",
"_	c #575855",
":	c #6A6B67",
"<	c #767874",
"[	c #EBECEA",
"}	c #FAFAFA",
"|	c #F2F4F1",
"1	c #F1F1F0",
"2	c #666763",
"3	c #E6E7E6",
"4	c #FAFAF9",
"5	c #626460",
"6	c #73756F",
"7	c #80817C",
"8	c #D4D6D3",
"9	c #F1F2F0",
"0	c #E7E9E4",
"a	c #DFE2DD",
"b	c #FCFCFB",
"c	c #737470",
"d	c #CFD1CE",
"e	c #F2F3F0",
"f	c #E8EAE6",
"g	c #E0E2DD",
"h	c #6D6E6A",
"i	c #82837F",
"j	c #ABAEA8",
"k	c #F0F1EF",
"l	c #F9FAF9",
"m	c #FEFEFE",
"n	c #797B75",
"o	c #7F817C",
"p	c #969791",
"q	c #EEEFED",
"r	c #767973",
"s	c #838581",
"t	c #91928C",
"u	c #C9CBC6",
"v	c #838580",
"w	c #8D9089",
"x	c #AFB0AC",
"y	c #81837D",
"z	c #90938C",
"A	c #9C9E97",
"B	c #9A9D97",
"C	c #ADAFAA",
"D	c #82837E",
"                ",
"                ",
"                ",
"        .     . ",
"      +@@   #@$ ",
"     %&*=  -;>, ",
"   ')!~{]^/(~{_ ",
" :<[}|1{234|1{5 ",
" 67890abcdefgbh ",
"   ijklmnopq4mr ",
"    stulv  wxly ",
"      zAB   CAo ",
"        D     D ",
"                ",
"                ",
"                "};
