/* XPM */
static const char * media_seek_forward_xpm[] = {
"16 16 69 1",
" 	c None",
".	c #414140",
"+	c #4A4B48",
"@	c #494A47",
"#	c #3D3D3B",
"$	c #3D3F3B",
"%	c #4D4E4B",
"&	c #F9F9F8",
"*	c #696C68",
"=	c #4C4C4A",
"-	c #4E504C",
";	c #FCFCFC",
">	c #747571",
",	c #4E4F4C",
"'	c #575855",
")	c #FBFBFB",
"!	c #FCFDFC",
"~	c #EBEBEA",
"{	c #646662",
"]	c #595A56",
"^	c #595A57",
"/	c #EEEFEE",
"(	c #6E6F6C",
"_	c #5B5E5A",
":	c #626460",
"<	c #F1F1F0",
"[	c #F2F4F1",
"}	c #FAFAF9",
"|	c #E6E7E6",
"1	c #666763",
"2	c #FAFAFA",
"3	c #EBECEA",
"4	c #767874",
"5	c #6A6B67",
"6	c #6D6E6A",
"7	c #FCFCFB",
"8	c #E0E2DD",
"9	c #E8EAE6",
"0	c #F2F3F0",
"a	c #CFD1CE",
"b	c #737470",
"c	c #DFE2DD",
"d	c #E7E9E4",
"e	c #F1F2F0",
"f	c #D4D6D3",
"g	c #80817C",
"h	c #73756F",
"i	c #767973",
"j	c #FEFEFE",
"k	c #EEEFED",
"l	c #969791",
"m	c #7F817C",
"n	c #797B75",
"o	c #F9FAF9",
"p	c #F0F1EF",
"q	c #ABAEA8",
"r	c #82837F",
"s	c #81837D",
"t	c #AFB0AC",
"u	c #8D9089",
"v	c #838580",
"w	c #C9CBC6",
"x	c #91928C",
"y	c #838581",
"z	c #9C9E97",
"A	c #ADAFAA",
"B	c #9A9D97",
"C	c #90938C",
"D	c #82837E",
"                ",
"                ",
"                ",
" .     .        ",
" +@#   @@$      ",
" %&*=  -;>,     ",
" ')!~{]^)!/(_   ",
" :)<[}|1)<[2345 ",
" 67890ab7cdefgh ",
" ij}klmnjopqr   ",
" sotu  vowxy    ",
" mzA   BzC      ",
" D     D        ",
"                ",
"                ",
"                "};
