/* XPM */
static char * object_rotate_right_on_xpm[] = {
"16 16 48 1",
" 	c None",
".	c #7439AE",
"+	c #6D36A3",
"@	c #6C36A2",
"#	c #6F37A6",
"$	c #7339AC",
"%	c #6E37A5",
"&	c #F7F3FB",
"*	c #F9F5FC",
"=	c #F8F4FB",
"-	c #EFE7F7",
";	c #D4BEE9",
">	c #8E55C6",
",	c #7238AB",
"'	c #DECDEE",
")	c #DFCFEF",
"!	c #E1D2F0",
"~	c #EADFF4",
"{	c #F5F0FA",
"]	c #D3BCE9",
"^	c #DAC7EC",
"/	c #DCCAED",
"(	c #E2D3F0",
"_	c #EEE5F6",
":	c #D8C4EB",
"<	c #ECE2F5",
"[	c #D5C0EA",
"}	c #773BB2",
"|	c #B28BD8",
"1	c #F3ECF9",
"2	c #F1EAF8",
"3	c #945EC9",
"4	c #7138A9",
"5	c #BE9DDE",
"6	c #D1BAE8",
"7	c #7E3FBD",
"8	c #CEB5E6",
"9	c #CDB4E6",
"0	c #CBB1E4",
"a	c #C9AEE3",
"b	c #C8ACE3",
"c	c #FBF8FD",
"d	c #C5A8E2",
"e	c #C3A4E1",
"f	c #C2A3E0",
"g	c #E0D0EF",
"h	c #C0A0DF",
"i	c #F2EBF8",
" .+@@#$$        ",
" %&**=-;>,      ",
" @='')!~{].     ",
" @=^^^^^/-($    ",
" %{&&{_'::<[.   ",
" ,+@@}|1^;[23   ",
"      45~66![.  ",
"       7188;<,  ",
"       @19081#  ",
"     @@,1aba1$@@",
"     @c1)ddd'1c@",
"      @c!efe(c@ ",
"       @cghgc@  ",
"        @cic@   ",
"         @*@    ",
"          @     "};
