/* XPM */
static const char * object_rotate_right_xpm[] = {
"16 16 84 1",
" 	c None",
".	c #D2650C",
"+	c #CE5D02",
"@	c #CE5C00",
"#	c #CF5F03",
"$	c #D1640B",
"%	c #D1640C",
"&	c #CF5D03",
"*	c #FEF7EF",
"=	c #FFF9F1",
"-	c #FEF8F0",
";	c #FCEFDF",
">	c #F4D1AE",
",	c #DB8138",
"'	c #D1630A",
")	c #FFF8EF",
"!	c #FDDCAA",
"~	c #FDDDAB",
"{	c #FDE0B4",
"]	c #FEE9CA",
"^	c #FEF6E8",
"/	c #F3CFAA",
"(	c #D1650C",
"_	c #FFF8ED",
":	c #FDD8A2",
"<	c #FDDAA7",
"[	c #FEEED6",
"}	c #F9E1C5",
"|	c #D2640B",
"1	c #CF5D02",
"2	c #FEF6EA",
"3	c #FFF7EC",
"4	c #FFF5E7",
"5	c #FEEDD4",
"6	c #FDD599",
"7	c #FEEBCE",
"8	c #F6D1A8",
"9	c #D2660D",
"0	c #D2630A",
"a	c #D1680F",
"b	c #E8AA72",
"c	c #FEF2E0",
"d	c #FDD191",
"e	c #FDD294",
"f	c #FEF1DC",
"g	c #DD8A40",
"h	c #D06107",
"i	c #EDB883",
"j	c #FEE9CB",
"k	c #FDCE89",
"l	c #FEDFB3",
"m	c #F6D1A9",
"n	c #D2650B",
"o	c #D5701B",
"p	c #FFF3E3",
"q	c #FDCA81",
"r	c #FDEBD5",
"s	c #D16206",
"t	c #CE5C01",
"u	c #FEF3E2",
"v	c #FCC97D",
"w	c #FCC778",
"x	c #FCCA7F",
"y	c #FEF3E3",
"z	c #CF5E01",
"A	c #D0620A",
"B	c #FCC574",
"C	c #FCC370",
"D	c #FCC473",
"E	c #FEF3E4",
"F	c #D0640C",
"G	c #FEFCF8",
"H	c #FDDDAD",
"I	c #FCC068",
"J	c #FFFCF9",
"K	c #FEDFB2",
"L	c #FCBE61",
"M	c #FCBD5F",
"N	c #FEE0B3",
"O	c #FEDDAD",
"P	c #FCBA5A",
"Q	c #FEDEAF",
"R	c #FEF1DE",
"S	c #FEFAF6",
" .+@@#$%        ",
" &*==-;>,'      ",
" @)!!~{]^/(     ",
" @_:::::<[}|    ",
" 123345!66789   ",
" 0+@@abc:defg   ",
"      hijkklmn  ",
"       opqqdrs  ",
"       tuvwxyz  ",
"     @@AcBCDEF@@",
"     @GyHIII!yG@",
"      @JKLMLNJ@ ",
"       @JOPQJ@  ",
"        @JRJ@   ",
"         @S@    ",
"          @     "};
