/* XPM */
static const char * preferences_system_xpm[] = {
"16 16 44 1",
" 	c None",
".	c #888A85",
"+	c #ECEBE9",
"@	c #EFEFEE",
"#	c #F0F0EE",
"$	c #F0F0F0",
"%	c #FAFAFA",
"&	c #8A8C87",
"*	c #F6F6F5",
"=	c #ABACA9",
"-	c #F7F7F7",
";	c #E5E3E2",
">	c #ADADAA",
",	c #EEEEEC",
"'	c #F3F3F3",
")	c #F0F0EF",
"!	c #EEEEED",
"~	c #ECECEA",
"{	c #BAB9B6",
"]	c #D2D1D0",
"^	c #A4A4A3",
"/	c #B8B7B5",
"(	c #B9B8B7",
"_	c #204A87",
":	c #7D8385",
"<	c #CAC9C8",
"[	c #BFBEBD",
"}	c #ADBBCC",
"|	c #7C93B3",
"1	c #D4D3D3",
"2	c #BDC8D4",
"3	c #788DA4",
"4	c #92A5BE",
"5	c #E4E3E2",
"6	c #C6C4C2",
"7	c #748AA2",
"8	c #7A95B4",
"9	c #D4D3D2",
"0	c #C4C3C2",
"a	c #7D91A7",
"b	c #7A95B5",
"c	c #728BAE",
"d	c #A0A19E",
"e	c #869CB8",
"                ",
"    .        .  ",
"   .+.      .@. ",
"    .#.    .$.  ",
" .  .%.    .&   ",
".*=.-;>,  .     ",
" .')!~{. .      ",
"  ....]^..      ",
"      /.(.      ",
"   ___:><[.     ",
"  _}}|_..1[.    ",
" _2334_  .56..  ",
"_}378|_   .90.  ",
"_}abc_     .d.  ",
"_4ee_      ...  ",
" ___            "};
