/* XPM */
static const char * process_stop_xpm[] = {
"16 16 133 2",
"  	c None",
". 	c #890000",
"+ 	c #860000",
"@ 	c #AF2222",
"# 	c #F68888",
"$ 	c #F78B8B",
"% 	c #F68A8A",
"& 	c #F68787",
"* 	c #F58383",
"= 	c #B82323",
"- 	c #B12222",
"; 	c #F38383",
"> 	c #DC4242",
", 	c #D52F2F",
"' 	c #DB3C3C",
") 	c #F17575",
"! 	c #B41F1F",
"~ 	c #B22424",
"{ 	c #D53737",
"] 	c #DA3B3B",
"^ 	c #F06F6F",
"/ 	c #B11B1B",
"( 	c #B32626",
"_ 	c #DB4141",
": 	c #D75757",
"< 	c #DACDCD",
"[ 	c #D75F5F",
"} 	c #D85C5C",
"| 	c #E6D9D9",
"1 	c #DB5F5F",
"2 	c #D93B3B",
"3 	c #EF6A6A",
"4 	c #B01818",
"5 	c #880202",
"6 	c #F68989",
"7 	c #DB4040",
"8 	c #D89292",
"9 	c #DBDBDB",
"0 	c #DAD6D6",
"a 	c #D76060",
"b 	c #D85A5A",
"c 	c #E6E0E0",
"d 	c #EDEDED",
"e 	c #E5A5A5",
"f 	c #D22F2F",
"g 	c #D63B3B",
"h 	c #EE6868",
"i 	c #890303",
"j 	c #D53030",
"k 	c #D89999",
"l 	c #DFDFDF",
"m 	c #E2DEDE",
"n 	c #E6DFDF",
"o 	c #ECECEC",
"p 	c #E6ABAB",
"q 	c #D23131",
"r 	c #D02F2F",
"s 	c #CE2F2F",
"t 	c #ED6565",
"u 	c #890202",
"v 	c #DEACAC",
"w 	c #E8E8E8",
"x 	c #E8BCBC",
"y 	c #D13131",
"z 	c #CF2F2F",
"A 	c #CC2F2F",
"B 	c #EC6161",
"C 	c #D85B5B",
"D 	c #F1F1F1",
"E 	c #F3EDED",
"F 	c #DA6464",
"G 	c #C92929",
"H 	c #E94545",
"I 	c #F58585",
"J 	c #D75B5B",
"K 	c #E5DFDF",
"L 	c #E4AAAA",
"M 	c #E6A5A5",
"N 	c #F9F9F9",
"O 	c #FCF7F7",
"P 	c #DA6767",
"Q 	c #C51A1A",
"R 	c #BD0202",
"S 	c #E83737",
"T 	c #F26969",
"U 	c #D52323",
"V 	c #D21F1F",
"W 	c #DE9292",
"X 	c #CE2828",
"Y 	c #E9A5A5",
"Z 	c #FEFEFE",
"` 	c #E39696",
" .	c #BD0000",
"..	c #BD0303",
"+.	c #E63434",
"@.	c #B82424",
"#.	c #EF5A5A",
"$.	c #D31111",
"%.	c #CB0101",
"&.	c #D65858",
"*.	c #C70303",
"=.	c #C50000",
"-.	c #C30000",
";.	c #C10101",
">.	c #D65F5F",
",.	c #BE0404",
"'.	c #DF2B2B",
").	c #C71D1D",
"!.	c #870000",
"~.	c #B72121",
"{.	c #ED5252",
"].	c #D01010",
"^.	c #C70000",
"/.	c #C10000",
"(.	c #BF0000",
"_.	c #BE0505",
":.	c #DF2C2C",
"<.	c #C41B1B",
"[.	c #880000",
"}.	c #B41D1D",
"|.	c #EB4C4C",
"1.	c #CC0F0F",
"2.	c #BF0505",
"3.	c #DF2D2D",
"4.	c #BF1919",
"5.	c #B11A1A",
"6.	c #EC4A4A",
"7.	c #ED4747",
"8.	c #EB4343",
"9.	c #EA3F3F",
"0.	c #E83B3B",
"a.	c #E73737",
"b.	c #BC1818",
"        . + + + + + + .         ",
"      . @ # $ $ % & * = .       ",
"    . - ; > , , , , ' ) ! .     ",
"  . ~ ; > { , , , , { ] ^ / .   ",
". ( ; _ : < [ , , } | 1 2 3 4 . ",
"5 6 7 , 8 9 0 a b c d e f g h 5 ",
"i # , , j k l m n o p q r s t u ",
"i # , , , j v w o x y z s A B u ",
"i # , , , C n o D E F s A G H u ",
"i I , , J K o L M N O P Q R S u ",
"5 T U V W o L r X Y Z `  ...+.u ",
". @.#.$.%.&.*.=.-.;.>.R ,.'.).!.",
"  . ~.{.].^.=.-./.(. ._.:.<.[.  ",
"    . }.|.1.-./.(. .2.3.4.[.    ",
"      . 5.6.7.8.9.0.a.b.[.      ",
"        . + + + + + + [.        "};
