/* XPM */
static const char *rotate_on_xpm[]={
"16 16 3 1",
". c None",
"# c #800000",
"a c #ff0000",
"......#########.",
"......#aaaaaa#..",
".......#aaaa##..",
"..###..#aaaaa#..",
".#aa#..#aaa#aa#.",
".#aa#...#a##aa#.",
"#aa#....#a#.#aa#",
"#aa#.....#..#aa#",
"#aa#........#aa#",
"#aa#........#aa#",
".#a#........#a#.",
".#aa#......#aa#.",
"..#aa##..##aa#..",
"...#aaa##aaa#...",
"....##aaaa##....",
"......####......"};
