/* XPM */
static const char * view_refresh_xpm[] = {
"16 16 94 2",
"  	c None",
". 	c #3A69A7",
"+ 	c #3A6AA7",
"@ 	c #3667A5",
"# 	c #3969A7",
"$ 	c #3868A6",
"% 	c #6890C0",
"& 	c #8FB0D3",
"* 	c #A8C2DF",
"= 	c #A8C1DE",
"- 	c #93B1D4",
"; 	c #5F87B9",
"> 	c #3767A5",
", 	c #3465A4",
"' 	c #3969A6",
") 	c #8CADD3",
"! 	c #9DBDDC",
"~ 	c #A1BEDD",
"{ 	c #B4CBE5",
"] 	c #BFD3E9",
"^ 	c #CCDDEE",
"/ 	c #D5E2F0",
"( 	c #BFD2E7",
"_ 	c #4B77AF",
": 	c #4371AB",
"< 	c #3566A4",
"[ 	c #6990C0",
"} 	c #7298C5",
"| 	c #3C6BA8",
"1 	c #5D85B7",
"2 	c #A1BBD9",
"3 	c #D8E4F1",
"4 	c #DBE6F2",
"5 	c #DDE8F3",
"6 	c #88A7CE",
"7 	c #C8D8EA",
"8 	c #4170AB",
"9 	c #3C6CA9",
"0 	c #3869A6",
"a 	c #6188B9",
"b 	c #CDDBEB",
"c 	c #E2EBF5",
"d 	c #E6EEF6",
"e 	c #3565A4",
"f 	c #6891C7",
"g 	c #C7D7E9",
"h 	c #C6D8EB",
"i 	c #E3ECF5",
"j 	c #3A6AA6",
"k 	c #8FACD0",
"l 	c #E7EEF6",
"m 	c #4774AD",
"n 	c #4C77AF",
"o 	c #4C78AF",
"p 	c #E5EDF5",
"q 	c #E5EDF6",
"r 	c #E4ECF5",
"s 	c #9CB7D7",
"t 	c #3768A6",
"u 	c #C4D7EB",
"v 	c #C9D9EA",
"w 	c #3566A5",
"x 	c #6C95C9",
"y 	c #537FB7",
"z 	c #E4EDF5",
"A 	c #C1D2E6",
"B 	c #4D79B0",
"C 	c #3C6BA9",
"D 	c #4F7CB6",
"E 	c #3768A5",
"F 	c #95B2D4",
"G 	c #E0E9F4",
"H 	c #CCDCED",
"I 	c #8FADD2",
"J 	c #4C78B0",
"K 	c #3D6DA9",
"L 	c #5B84B7",
"M 	c #4E7AB1",
"N 	c #B4CAE3",
"O 	c #C9DAEC",
"P 	c #BCD1E7",
"Q 	c #B0C9E3",
"R 	c #A0BEDE",
"S 	c #88ABD2",
"T 	c #82A5CE",
"U 	c #8EAED3",
"V 	c #3767A6",
"W 	c #5580B5",
"X 	c #84A6CE",
"Y 	c #97B6D8",
"Z 	c #99B9DB",
"` 	c #8AACD3",
" .	c #6D94C2",
"..	c #3B6BA7",
"        . + @ # +               ",
"      $ % & * = - ; >       ,   ",
"    ' ) ! ~ { ] ^ / ( _ @ : <   ",
"  # [ } | < + 1 2 3 4 5 6 7 +   ",
"  $ 8 9 +       0 a b c d d +   ",
"  e + f >           < g h i j   ",
"  ,               $ k l 4 d j   ",
"                , , m n n o ,   ",
"  , , , , , , ,                 ",
"  , p q r s t               ,   ",
"  < d u v ,           w x y ,   ",
"  > d i z A B 0       C D + E   ",
"  $ 3 F G 5 H I J w ' ' K J +   ",
"  > L @ M N O P Q R S T U $     ",
"  , @     V W X Y Z `  .$       ",
"  ,           + 0 < + ..        "};
