/* XPM */
static const char * x_office_spreadsheet_xpm[] = {
"16 16 124 2",
"  	c None",
". 	c #999999",
"+ 	c #818181",
"@ 	c #FFFFFF",
"# 	c #B7B7B7",
"$ 	c #B7B7B8",
"% 	c #9E9E9F",
"& 	c #B8B8B8",
"* 	c #9F9F9F",
"= 	c #B8B8B9",
"- 	c #9E9E9E",
"; 	c #9F9F9E",
"> 	c #B7B8B7",
", 	c #C3C3C3",
"' 	c #EEEEEE",
") 	c #C2C2C2",
"! 	c #EEEFEE",
"~ 	c #EFEEEF",
"{ 	c #B1B1B1",
"] 	c #B9B8B9",
"^ 	c #E0E0E0",
"/ 	c #E0E1E0",
"( 	c #E1E0E0",
"_ 	c #E1E1E1",
": 	c #B9B8B8",
"< 	c #C4C4C4",
"[ 	c #C3C4C4",
"} 	c #EEEEEF",
"| 	c #EFEFEF",
"1 	c #F0EFEF",
"2 	c #B9B9B8",
"3 	c #B9B9B9",
"4 	c #C9A6A5",
"5 	c #AE3A36",
"6 	c #A50F0C",
"7 	c #A40201",
"8 	c #A40D0A",
"9 	c #B03B37",
"0 	c #8D6969",
"a 	c #9E403D",
"b 	c #A70A07",
"c 	c #C66453",
"d 	c #CB715C",
"e 	c #C9735D",
"f 	c #C5715B",
"g 	c #BF6C59",
"h 	c #C06E61",
"i 	c #AC201D",
"j 	c #A73634",
"k 	c #B2B2B2",
"l 	c #A65C5B",
"m 	c #AF2017",
"n 	c #CB725D",
"o 	c #C7654D",
"p 	c #BB5338",
"q 	c #B65136",
"r 	c #B04E35",
"s 	c #B35D47",
"t 	c #AE5B45",
"u 	c #A95743",
"v 	c #AA2F28",
"w 	c #9F2523",
"x 	c #A51412",
"y 	c #CA6F5A",
"z 	c #BF5439",
"A 	c #BA5237",
"B 	c #B44F36",
"C 	c #AF4D34",
"D 	c #886556",
"E 	c #765F5A",
"F 	c #715B56",
"G 	c #6B5853",
"H 	c #77605B",
"I 	c #9D0D0C",
"J 	c #C76951",
"K 	c #B85137",
"L 	c #B24E36",
"M 	c #AD4C34",
"N 	c #AE653A",
"O 	c #95995D",
"P 	c #1D84A0",
"Q 	c #177F99",
"R 	c #3D91A5",
"S 	c #3B8EA0",
"T 	c #A20101",
"U 	c #9F1212",
"V 	c #CA7E6D",
"W 	c #B85F48",
"X 	c #AB4C33",
"Y 	c #A64932",
"Z 	c #B18B44",
"` 	c #B8BC50",
" .	c #358086",
"..	c #509CAD",
"+.	c #278397",
"@.	c #496E77",
"#.	c #970909",
"$.	c #BC7878",
"%.	c #9C1D1A",
"&.	c #BD7E6D",
"*.	c #BE7F70",
"=.	c #BD8374",
"-.	c #CDC787",
";.	c #CBD089",
">.	c #B4B48A",
",.	c #5C93A0",
"'.	c #44656D",
").	c #7B1618",
"!.	c #A12F2F",
"~.	c #959595",
"{.	c #934040",
"].	c #9E0605",
"^.	c #99463D",
"/.	c #9E624D",
"(.	c #A6A14C",
"_.	c #9F9B4A",
":.	c #948845",
"<.	c #4B3C43",
"[.	c #9A0505",
"}.	c #A32B2B",
"|.	c #991C1C",
"1.	c #A00C0C",
"2.	c #A30201",
"3.	c #A42525",
". + + + + + + + + + + + +       ",
"+ @ @ @ @ @ @ @ @ @ @ @ @ +     ",
"+ @ # # $ % & & * = = * @ +     ",
"+ @ - ; * * * * * * * * @ +     ",
"+ @ > , , * ' ' ) ! ~ ) @ +     ",
"+ @ { & ] * ^ / ) ( _ ) @ +     ",
"+ @ : < [ * } ~ ) | 1 ) @ +     ",
"+ @ { 2 3 * 4 5 6 7 7 8 9 0     ",
"+ @ 3 < < a b c d e f g h i j   ",
"+ @ k 3 l m n o p q r s t u v w ",
"+ @ 3 < x y z A B C D E F G H I ",
"+ @ k 3 7 J K L M N O P Q R S T ",
"+ @ 3 < U V W X Y Z `  ...+.@.#.",
"+ @ @ @ $.%.&.*.=.-.;.>.,.'.).!.",
"~.+ + + + {.].^./.(._.:.<.[.}.  ",
"              |.1.2.T 1.3.      "};
