/* XPM */
static const char * zoom_fit_best_xpm[] = {
"16 16 114 2",
"  	c None",
". 	c #878B87",
"+ 	c #868C8A",
"@ 	c #888B89",
"# 	c #ACB6BF",
"$ 	c #CDD6DD",
"% 	c #E4E7E9",
"& 	c #929594",
"* 	c #CFD8E0",
"= 	c #D3DDE5",
"- 	c #A4BFDC",
"; 	c #99B9DA",
"> 	c #9AB9DA",
", 	c #A4BFDD",
"' 	c #CFDAE5",
") 	c #87A6CA",
"! 	c #547FB5",
"~ 	c #5B84B8",
"{ 	c #8AAAD0",
"] 	c #88A9CF",
"^ 	c #5983B7",
"/ 	c #537EB5",
"( 	c #527EB5",
"_ 	c #FFFFFF",
": 	c #90AED2",
"< 	c #5C85B8",
"[ 	c #507DB4",
"} 	c #868C8B",
"| 	c #9DBBDA",
"1 	c #5E86B8",
"2 	c #8CABD1",
"3 	c #87A8CF",
"4 	c #5982B7",
"5 	c #9EBBDA",
"6 	c #878B88",
"7 	c #8EB2D6",
"8 	c #85A7CE",
"9 	c #5A84B7",
"0 	c #86A7CE",
"a 	c #AFC8E4",
"b 	c #AAC5E2",
"c 	c #7DA1CC",
"d 	c #799FCA",
"e 	c #7199C8",
"f 	c #86ACD4",
"g 	c #89AED4",
"h 	c #6C96C6",
"i 	c #739AC8",
"j 	c #799ECA",
"k 	c #A0BEDF",
"l 	c #9AB9DC",
"m 	c #7198C7",
"n 	c #4D7AB2",
"o 	c #638FC2",
"p 	c #878C8B",
"q 	c #CFD8DE",
"r 	c #A7C1DD",
"s 	c #4D7BB3",
"t 	c #4E7BB3",
"u 	c #6E97C6",
"v 	c #4F7CB3",
"w 	c #A9C3DE",
"x 	c #D0D8DE",
"y 	c #888B87",
"z 	c #B1BAC1",
"A 	c #D9E1E8",
"B 	c #517DB4",
"C 	c #779DC9",
"D 	c #527EB4",
"E 	c #DAE2E8",
"F 	c #B2BBC1",
"G 	c #8A8C8A",
"H 	c #D7DDE2",
"I 	c #96B0CF",
"J 	c #5680B5",
"K 	c #5681B6",
"L 	c #7FA2CC",
"M 	c #80A3CC",
"N 	c #5781B6",
"O 	c #D8DEE3",
"P 	c #949895",
"Q 	c #DADFE3",
"R 	c #E1E6EA",
"S 	c #C7D7E8",
"T 	c #BDD2E6",
"U 	c #BED2E6",
"V 	c #C8D8E8",
"W 	c #DFE5EA",
"X 	c #DBE0E4",
"Y 	c #959896",
"Z 	c #9DA09B",
"` 	c #60625F",
" .	c #8A8D8A",
"..	c #BCC1C4",
"+.	c #DCE0E2",
"@.	c #E9EBEB",
"#.	c #BDC2C5",
"$.	c #898C88",
"%.	c #878A84",
"&.	c #B9BCB6",
"*.	c #BDBFBC",
"=.	c #61635F",
"-.	c #8A8C88",
";.	c #8D918D",
">.	c #8B8D89",
",.	c #8E918D",
"'.	c #575955",
").	c #7A7B78",
"!.	c #B7B8B6",
"~.	c #595B57",
"{.	c #555753",
"].	c #767873",
"^.	c #A0A29F",
"/.	c #565854",
"        . + . . + .             ",
"      @ # $ % % $ # @           ",
"    & * = - ; > , ' * &         ",
"  @ * ) ! ~ { ] ^ / ) * @       ",
". # ' ( _ _ : < _ _ [ ' # .     ",
"} $ | ~ _ 1 2 3 4 _ ! 5 $ +     ",
"6 % 7 8 9 0 a b c d e f % .     ",
"6 % g h i j k l m n o g % .     ",
"p q r s _ t u u v _ t w x p     ",
"y z A B _ _ / C _ _ D E F y     ",
"  G H I J K L M N K I O .       ",
"    P Q R S T U V W X Y Z `     ",
"       ...+.@.@.+.#.$.%.&.*.=.  ",
"        -.;.>.>.,.-.  '.).%.!.~.",
"                        {.].^.~.",
"                          {./.  "};
