/* XPM */
static const char *zoom_out_xpm[]={
"16 16 6 1",
". c None",
"c c #000000",
"# c #000080",
"b c #804000",
"a c #d3e4e8",
"d c #ffff00",
"................",
"....##..........",
"..##aa##........",
".#aaaaaa#.......",
".#aaaaaa#.......",
"#aaaaaaaa#......",
"#aaaaaaaa#......",
".#aaaaaa#.......",
".#aaaaaa#.......",
"..##aa##bb......",
"....##..bbbb....",
"..c....c.bddb...",
".cc.c.cc.bdddb..",
"..c....c..bdddb.",
"..c.c..c...bddb.",
"..c....c....bb.."};
