/* XPM */
static const char * zoom_fit_best_r_xpm[] = {
"16 16 69 1",
" 	c None",
".	c #C34C4C",
"+	c #C34E4E",
"@	c #D98C8C",
"#	c #E9BCBC",
"$	c #F2D8D8",
"%	c #C95C5C",
"&	c #EAC1C1",
"*	c #ECC7C7",
"=	c #DC9595",
"-	c #EBC3C3",
";	c #CF7070",
">	c #B33C3C",
",	c #BD3F3F",
"'	c #D27878",
")	c #D07373",
"!	c #BA3E3E",
"~	c #FEFDFD",
"{	c #D37E7E",
"]	c #BE3F3F",
"^	c #B13B3B",
"/	c #C44F4F",
"(	c #DA9090",
"_	c #D27979",
":	c #B83D3D",
"<	c #D58282",
"[	c #D07171",
"}	c #E1A6A6",
"|	c #DFA0A0",
"1	c #CD6868",
"2	c #CB6464",
"3	c #D37C7C",
"4	c #C75757",
"5	c #C95E5E",
"6	c #C85B5B",
"7	c #AC3939",
"8	c #DD9A9A",
"9	c #C75858",
"0	c #AE3939",
"a	c #DE9D9D",
"b	c #DB9393",
"c	c #EECDCD",
"d	c #CB6262",
"e	c #B23B3B",
"f	c #EFCFCF",
"g	c #EDC8C8",
"h	c #D47F7F",
"i	c #B73D3D",
"j	c #CD6A6A",
"k	c #CE6C6C",
"l	c #CA6060",
"m	c #EECCCC",
"n	c #F1D4D4",
"o	c #E6B5B5",
"p	c #E9BEBE",
"q	c #F0D3D3",
"r	c #CE6D6D",
"s	c #903030",
"t	c #DF9F9F",
"u	c #F3DEDE",
"v	c #C34B4B",
"w	c #DC9797",
"x	c #DE9C9C",
"y	c #C65555",
"z	c #822B2B",
"A	c #DA9191",
"B	c #852C2C",
"C	c #7F2A2A",
"D	c #812B2B",
"    .+..+.      ",
"   .@#$$#@.     ",
"  %&*=@@=-&%    ",
" .&;>,')!>;&.   ",
".@->~~{]~~^-@.  ",
"/#(,~]_):~>(#+  ",
".$<[,[}|12%_$.  ",
".$3452=@67+3$.  ",
"/&87~7990~7a&/  ",
".bc^~~>d~~efb.  ",
" /ghi:jk::hg.   ",
"  lmn#oopqclrs  ",
"   /tcuuc|/vwxs ",
"    /y//4/ z>vAB",
"            C^;B",
"             CD "};
