/* XPM */
static const char * zoom_out_xpm[] = {
"16 16 108 2",
"  	c None",
". 	c #878B87",
"+ 	c #868C8A",
"@ 	c #888B89",
"# 	c #ACB6BF",
"$ 	c #CDD6DD",
"% 	c #E4E7E9",
"& 	c #929594",
"* 	c #CFD8E0",
"= 	c #D3DDE5",
"- 	c #A4BFDC",
"; 	c #99B9DA",
"> 	c #9AB9DA",
", 	c #A4BFDD",
"' 	c #CFDAE5",
") 	c #B4C9DF",
"! 	c #9DBDDD",
"~ 	c #B5CDE6",
"{ 	c #B7CEE7",
"] 	c #B0CAE4",
"^ 	c #9ABADD",
"/ 	c #98B9DC",
"( 	c #BCD1E8",
"_ 	c #C2D6EA",
": 	c #C1D4EA",
"< 	c #BAD0E7",
"[ 	c #B2CBE5",
"} 	c #ABC6E2",
"| 	c #91B4DA",
"1 	c #868C8B",
"2 	c #9DBBDA",
"3 	c #B6CDE6",
"4 	c #5D85B8",
"5 	c #5E86B8",
"6 	c #5C85B8",
"7 	c #5B84B8",
"8 	c #5982B7",
"9 	c #5781B6",
"0 	c #9FBDDE",
"a 	c #9EBBDA",
"b 	c #878B88",
"c 	c #8EB2D6",
"d 	c #5983B7",
"e 	c #FFFFFF",
"f 	c #507DB4",
"g 	c #86ACD4",
"h 	c #89AED4",
"i 	c #4E7BB3",
"j 	c #4A78B2",
"k 	c #878C8B",
"l 	c #CFD8DE",
"m 	c #A7C1DD",
"n 	c #86ADD6",
"o 	c #4F7CB3",
"p 	c #89AED6",
"q 	c #A9C3DE",
"r 	c #D0D8DE",
"s 	c #888B87",
"t 	c #B1BAC1",
"u 	c #D9E1E8",
"v 	c #94B6DA",
"w 	c #96B7DB",
"x 	c #9ABADC",
"y 	c #97B8DB",
"z 	c #DAE2E8",
"A 	c #B2BBC1",
"B 	c #8A8C8A",
"C 	c #D7DDE2",
"D 	c #CAD8E6",
"E 	c #A4C0DF",
"F 	c #A6C2E0",
"G 	c #A7C3E1",
"H 	c #A8C4E1",
"I 	c #D8DEE3",
"J 	c #949895",
"K 	c #DADFE3",
"L 	c #E1E6EA",
"M 	c #C7D7E8",
"N 	c #BDD2E6",
"O 	c #BED2E6",
"P 	c #C8D8E8",
"Q 	c #DFE5EA",
"R 	c #DBE0E4",
"S 	c #959896",
"T 	c #9DA09B",
"U 	c #60625F",
"V 	c #8A8D8A",
"W 	c #BCC1C4",
"X 	c #DCE0E2",
"Y 	c #E9EBEB",
"Z 	c #BDC2C5",
"` 	c #898C88",
" .	c #878A84",
"..	c #B9BCB6",
"+.	c #BDBFBC",
"@.	c #61635F",
"#.	c #8A8C88",
"$.	c #8D918D",
"%.	c #8B8D89",
"&.	c #8E918D",
"*.	c #575955",
"=.	c #7A7B78",
"-.	c #B7B8B6",
";.	c #595B57",
">.	c #555753",
",.	c #767873",
"'.	c #A0A29F",
").	c #565854",
"        . + . . + .             ",
"      @ # $ % % $ # @           ",
"    & * = - ; > , ' * &         ",
"  @ * ) ! ~ { ~ ] ^ ) * @       ",
". # ' / ( _ : < [ } | ' # .     ",
"1 $ 2 3 4 5 6 7 8 9 0 a $ +     ",
"b % c d e e e e e e f g % .     ",
"b % h i e e e e e e j h % .     ",
"k l m n i i o o o i p q r k     ",
"s t u v w / x x x / y z A s     ",
"  B C D E F G H G F D I .       ",
"    J K L M N O P Q R S T U     ",
"      V W X Y Y X Z `  ...+.@.  ",
"        #.$.%.%.&.#.  *.=. .-.;.",
"                        >.,.'.;.",
"                          >.).  "};
