/* XPM */
static const char *zoom_in_xpm[]={
"16 16 6 1",
"# c None",
". c #000000",
"a c #000080",
"c c #804000",
"b c #d3e4e8",
"d c #ffff00",
".##...##...##...",
".####aa#########",
".##aabbaa#######",
"##abbbbbba#####.",
"##abbbbbba#####.",
".abbbbbbbba####.",
".abbbbbbbba#####",
".#abbbbbba######",
"##abbbbbba#####.",
"###aabbaaccc###.",
".####aa##cddc##.",
".########cdddc##",
".#########cdddc#",
"###########cddc.",
"############cc#.",
"...##...##...##."};
